<?xml version="1.0" encoding="utf-8"?>
<!-- Generator: Adobe Illustrator 19.1.0, SVG Export Plug-In . SVG Version: 6.00 Build 0)  -->
<svg version="1.1" id="Слой_1" xmlns="http://www.w3.org/2000/svg" xmlns:xlink="http://www.w3.org/1999/xlink" x="0px" y="0px"
	 viewBox="0 0 525.3 124" style="enable-background:new 0 0 525.3 124;" xml:space="preserve">
<style type="text/css">
	.st0{fill:#FF6233;}
	.st1{fill:#FFFFFF;}
	.st2{fill:#FFFFFF;stroke:#FF6233;stroke-width:2;stroke-miterlimit:10;}
	.st3{fill:#38738C;}
</style>
<path class="st0" d="M67.3,99.8h-0.8c-0.6,0-1-0.4-1-1v-8.4c0-0.6,0.4-1,1-1h0.8c0.6,0,1,0.4,1,1v8.4C68.3,99.4,67.8,99.8,67.3,99.8
	z"/>
<g>
	<g>
		<path class="st0" d="M157.1,29.6h-24.7V23h24.7V29.6z M167.6,23v85h-7.3V23H167.6z M195.3,23v6.6h-24.6V23H195.3z"/>
		<path class="st0" d="M216.7,36.7h-6.6V26.6h6.6V36.7z M216.7,46.4V108h-6.6V46.4H216.7z"/>
		<path class="st0" d="M237.4,46.4h6.8V108h-6.8V46.4z M265.2,44.9c2.8,0,5.5,0.4,8,1.2c2.5,0.8,4.7,2,6.5,3.5
			c1.8,1.5,3.3,3.3,4.3,5.4c1.1,2.1,1.6,4.5,1.6,7v46h-6.9V63.6c-0.2-3.9-1.5-6.8-4.1-8.7c-2.6-1.9-6.1-2.9-10.6-2.9
			c-2.5,0-5.4,0.6-8.6,1.8c-3.2,1.2-5.8,2.7-7.8,4.7v-8.4c2-1.5,4.6-2.7,7.7-3.7C258.3,45.4,261.6,44.9,265.2,44.9z"/>
		<path class="st0" d="M312.8,36.7h-6.6V26.6h6.6V36.7z M312.8,46.4V108h-6.6V46.4H312.8z"/>
		<path class="st0" d="M335.6,40.8c0-6,1.5-10.7,4.4-14.1c3-3.4,7-5,12.2-5c2.2,0,4.2,0.3,6,0.9c1.8,0.6,3.7,1.7,5.7,3.4l-3.2,4.9
			c-1-1-2.2-1.7-3.5-2.3c-1.3-0.6-2.7-0.9-4.4-0.9c-3.6,0-6.2,1.1-8,3.4c-1.7,2.3-2.6,5.5-2.6,9.7v5.6h12.5v5.8h-29.4v-5.8h10.2
			V40.8z M342.3,55.4V108h-6.7V55.4H342.3z"/>
		<path class="st0" d="M373.7,36.7h-6.6V26.6h6.6V36.7z M373.7,46.4V108h-6.6V46.4H373.7z"/>
		<path class="st0" d="M391.2,77.1c0-4.3,0.7-8.4,2-12.1c1.3-3.8,3.2-7.1,5.7-10c2.4-2.9,5.3-5.2,8.7-7c3.4-1.7,7.1-2.7,11.2-3v5.6
			c-4.6,0.3-8.5,1.8-11.5,4.3c-3.1,2.6-5.4,5.7-7,9.5c-1.6,3.8-2.4,7.8-2.4,12.1c0,4.3,0.7,8.4,2.2,12.2c1.5,3.8,3.8,7,6.9,9.8
			c3.1,2.8,7,4.4,11.8,5v5.9c-4.1-0.3-7.8-1.4-11.2-3.1c-3.4-1.8-6.3-4-8.7-6.8c-2.4-2.8-4.3-6.1-5.7-9.9
			C391.9,85.8,391.2,81.6,391.2,77.1z M442.8,74c0-2.5-0.4-5.1-1.3-7.8c-0.9-2.7-2.1-5.1-3.8-7.3c-1.7-2.2-3.8-4.1-6.4-5.6
			c-2.6-1.5-5.7-2.4-9.2-2.7v-5.7c4.4,0.2,8.3,1.2,11.8,3c3.5,1.8,6.4,4.2,8.7,7.2c2.3,2.9,4.1,6.3,5.3,10.2c1.2,3.9,1.8,8,1.8,12.3
			v1.7h-48.2c-0.1-0.4-0.1-0.9-0.2-1.4c0-0.4,0-1-0.1-1.6c0-0.7,0-1.4,0.2-2.2H442.8z M445.7,99.6c-3.1,3.2-6.5,5.7-10.4,7.3
			c-3.9,1.7-8.3,2.5-13.3,2.6v-5.8h0.1c3.9,0,7.6-0.7,11-2.1c3.4-1.4,6.5-3.6,9.1-6.4L445.7,99.6z"/>
		<path class="st0" d="M473.2,46.4V108h-6.6V46.4H473.2z M494.6,52.4c-1.5,0-3.1,0.2-4.8,0.6c-1.7,0.4-3.4,0.9-5,1.6
			c-1.7,0.7-3.2,1.5-4.7,2.4c-1.5,0.9-2.7,1.9-3.7,3v-8c2.4-2,5.1-3.4,8.2-4.4c3.1-1,6.4-1.5,9.9-1.5V52.4z"/>
	</g>
</g>
<g>
	<path class="st0" d="M114.6,59.5c-3.7,6.7-12,9.2-18.7,5.6c-6.7-3.7-9.2-12.1-5.5-18.8c3.7-6.7,12.1-9.2,18.8-5.6
		C115.9,44.4,118.3,52.7,114.6,59.5z M110,56.7c0.5-1.3,1.1-2.8,1.7-4.3c0.2-0.6,0.2-1.1-0.6-1.4c-1.5-0.5-1.5-0.5-2.1,1
		c-0.7,1.7-1.5,3.3-2.4,4.9c-0.8,1.4-1.9,1.8-3.5,1.2c-1.6-0.6-3.1-1.4-4.6-2.3c-2-1.3-2.4-2.2-1.4-4.4c0.8-1.7,2-3.3,3-4.9
		c0.4-0.6,0.7-1.1-0.1-1.5c-0.6-0.3-1.1-1.3-1.9-0.3c-1.7,2.1-3.3,4.3-4.1,7c-0.5,1.8-0.2,3.5,1.2,4.8c2.3,2.2,5.1,3.7,8.2,4.5
		c1.8,0.5,3.3,0,4.5-1.4C108.6,58.8,109.2,57.8,110,56.7z"/>
	<path class="st1" d="M110,56.7c-0.8,1.1-1.4,2.2-2.1,3.1c-1.2,1.4-2.8,1.9-4.5,1.4c-3.1-0.8-5.9-2.3-8.2-4.5
		c-1.4-1.3-1.7-3-1.2-4.8c0.8-2.7,2.4-4.9,4.1-7c0.8-1,1.3,0,1.9,0.3c0.7,0.4,0.5,0.9,0.1,1.5c-1,1.6-2.2,3.1-3,4.9
		c-1,2.2-0.6,3.1,1.4,4.4c1.4,0.9,3,1.6,4.6,2.3c1.5,0.6,2.7,0.2,3.5-1.2c0.9-1.6,1.7-3.2,2.4-4.9c0.6-1.5,0.6-1.5,2.1-1
		c0.8,0.3,0.9,0.7,0.6,1.4C111.1,53.9,110.5,55.4,110,56.7z"/>
</g>
<g>
	<path class="st2" d="M80.1,64.9l-29.4,2.7c-6.6,0.6-12.4-4.3-13-10.9l-1.8-19.3c-0.6-6.6,4.3-12.4,10.9-13l29.4-2.7
		c6.6-0.6,12.4,4.3,13,10.9L91,51.9C91.6,58.5,86.7,64.3,80.1,64.9z"/>
	<g>
		<path class="st3" d="M41.1,54.3c-0.2,0-0.3,0-0.5-0.1c-0.4-0.2-0.5-0.7-0.3-1.1l10.9-19c0.5-0.9,1.4-1.6,2.4-1.8
			c1-0.2,2,0.1,2.8,0.8l11.2,9.3c0.3,0.3,0.4,0.8,0.1,1.1c-0.3,0.3-0.8,0.4-1.1,0.1l-11.2-9.3c-0.5-0.4-1-0.6-1.5-0.5
			c-0.5,0.1-1,0.4-1.3,1l-10.9,19C41.6,54.1,41.3,54.3,41.1,54.3L41.1,54.3z M41.1,54.3"/>
		<path class="st3" d="M55.2,63.9c-0.2,0-0.3,0-0.5-0.1c-0.4-0.2-0.5-0.7-0.3-1.1l14.1-23c0.6-0.9,1.4-1.5,2.5-1.7
			c1-0.2,2,0.1,2.9,0.7l9.5,7.4c0.3,0.3,0.4,0.8,0.1,1.1c-0.3,0.3-0.8,0.4-1.1,0.1l-9.4-7.4c-0.5-0.4-1.1-0.5-1.6-0.4
			c-0.6,0.1-1.1,0.4-1.4,1l-14.1,23C55.6,63.7,55.4,63.9,55.2,63.9L55.2,63.9z M55.2,63.9"/>
		<path class="st3" d="M77.8,36.2c-2.5,0.2-4.6-1.6-4.9-4.1c-0.2-2.5,1.6-4.6,4.1-4.9c2.5-0.2,4.6,1.6,4.9,4.1
			C82.1,33.8,80.3,36,77.8,36.2L77.8,36.2z M77.1,28.3c-1.9,0.2-3.3,1.9-3.1,3.7c0.2,1.9,1.9,3.3,3.7,3.1c1.9-0.2,3.3-1.9,3.1-3.7
			C80.7,29.6,79,28.2,77.1,28.3L77.1,28.3z M77.1,28.3"/>
	</g>
</g>
<g>
	<path class="st3" d="M111.7,106.3c-24.2,0-48.2,0-72.2,0c0.2-2.9,1.8-21.6,2.3-28c0.2-2.7,1.3-3.7,4-3.7c19.8,0,39.6,0,59.4,0
		c2.9,0,3.9,1,4.1,3.8c0.6,7,1.2,14,1.8,21C111.3,101.7,111.5,104,111.7,106.3z M75.4,92.1c5.7,0,11.5,0,17.2,0
		c1.6,0,2.4-0.8,2.4-2.4c0-2.2,0-4.4,0-6.7c0-1.4-0.7-2.2-2.1-2.2c-1.6-0.1-3.2-0.1-4.9-0.1c-10,0-19.9,0-29.9,0
		c-1.5,0-2.4,0.9-2.3,2.5c0.1,2,0.2,4,0.1,6c-0.1,2.1,0.5,2.8,2.5,2.8C64.2,92.1,69.8,92.1,75.4,92.1z"/>
	<path class="st3" d="M31.5,66.3c30.1,0,60.2,0,90.2,0c0.5,2.1-0.6,3.6-3.9,4.4c-3.5,0.8-7.1,1.4-10.7,1.7
		c-13.4,1.1-26.8,1.1-40.3,0.8C59,73,51.1,72.6,43.3,72.1c-2.8-0.2-5.7-0.8-8.4-1.5C32.1,69.8,31.1,68.4,31.5,66.3z"/>
	<path class="st3" d="M111.4,107.6c0.3,0.1,0.8,0.6,0.8,0.9c0,0.3-0.4,0.7-0.8,0.9c-0.4,0.2-47.4,0.2-70.4,0.2c-0.8,0-2,0.1-2-1.1
		c0-1.1,1.2-1,2.1-1C52.6,107.4,110.9,107.4,111.4,107.6z"/>
</g>
<path class="st3" d="M88.7,93.5h-0.8c-0.6,0-1-0.4-1-1v-8.4c0-0.6,0.4-1,1-1h0.8c0.5,0,1,0.4,1,1v8.4C89.7,93.1,89.2,93.5,88.7,93.5
	z"/>
<path class="st3" d="M83.3,95.4h-0.8c-0.5,0-1-0.4-1-1V86c0-0.6,0.5-1,1-1h0.8c0.6,0,1,0.4,1,1v8.4C84.3,94.9,83.9,95.4,83.3,95.4z"
	/>
<path class="st3" d="M78,96.8h-0.8c-0.6,0-1-0.5-1-1v-8.4c0-0.6,0.4-1,1-1H78c0.5,0,1,0.4,1,1v8.4C79,96.4,78.5,96.8,78,96.8z"/>
<path class="st3" d="M72.6,98.7h-0.8c-0.5,0-1-0.4-1-1v-8.4c0-0.6,0.5-1,1-1h0.8c0.6,0,1,0.4,1,1v8.4C73.6,98.2,73.2,98.7,72.6,98.7
	z"/>
<path class="st3" d="M61.9,100.8h-0.8c-0.5,0-1-0.4-1-1v-8.4c0-0.5,0.5-1,1-1h0.8c0.5,0,1,0.5,1,1v8.4
	C62.9,100.4,62.5,100.8,61.9,100.8z"/>
</svg>
